# xmcd
# 
# Track frame offsets:
#     150
#     18583
#     34939
#     45385
# 
# Disc length: 837
# 
# Revision: 0
# Processed by: cddbd v1.5.2PL0 Copyright (c) Steve Scherf et al.
# Submitted via: fre:ac v1.0.17
# 
DISCID=29034304
DTITLE=Spoon - Everything Hits At Once
DYEAR=0
DGENRE=Alternative
TTITLE0=Everything Hits At Once
TTITLE1=The Agony Of Laffitte
TTITLE2=Lines In The Suit (30 Minutes Old)
TTITLE3=Everything Hits At Once (For Discos)
EXTD=
EXTT0=
EXTT1=
EXTT2=
EXTT3=
PLAYORDER=
